<svg width="1440" height="666" viewBox="0 0 1440 666" fill="none" xmlns="http://www.w3.org/2000/svg">
<g clip-path="url(#clip0_1056_75)">
<rect width="1440" height="666" fill="#0000BD"/>
<circle cx="531.5" cy="167.5" r="376" stroke="white" stroke-width="3"/>
<circle cx="908.5" cy="167.5" r="376" stroke="white" stroke-width="3"/>
<circle cx="708.5" cy="499.5" r="376" stroke="white" stroke-width="3"/>
<path d="M599.21 298.45C601.61 298.45 603.53 297.7 604.73 296.95V298H608V286.09H598.64V289.15H604.73V293.56C603.53 294.46 601.58 295.39 599.21 295.39C594.92 295.39 591.89 292.03 591.89 287.8C591.89 283.54 594.8 280.21 599.75 280.21C601.55 280.21 603.05 280.48 604.28 281.02C605.51 281.53 606.38 282.01 606.92 282.46V278.98C606.35 278.62 605.42 278.23 604.16 277.81C602.93 277.36 601.46 277.15 599.75 277.15C593.06 277.06 588.41 281.98 588.5 287.8C588.41 293.62 592.91 298.45 599.21 298.45ZM616.261 294.94V288.67H625.501V285.61H616.261V280.69H627.871V277.63H612.991V298H628.051V294.94H616.261ZM632.239 298H635.479V282.31L646.339 298H649.969V277.63H646.729V293.05L635.989 277.63H632.239V298ZM658.654 294.94V288.67H667.894V285.61H658.654V280.69H670.264V277.63H655.384V298H670.444V294.94H658.654ZM685.912 289.84C688.822 289.12 690.802 287.05 690.802 283.87C690.802 279.85 687.682 277.63 683.602 277.63H674.632V298H677.902V290.11H682.072L687.892 298H691.972L685.912 289.84ZM677.902 287.11V280.69H683.362C685.582 280.69 687.442 281.71 687.442 283.93C687.442 286.12 685.582 287.11 683.362 287.11H677.902ZM693.245 298H697.055L699.005 293.17H708.815L710.765 298H714.575L705.515 277.63H702.305L693.245 298ZM700.235 290.11L703.925 281.44L707.585 290.11H700.235ZM719.647 298H722.887V280.69H730.027V277.63H712.507V280.69H719.647V298ZM733.929 298H737.199V277.63H733.929V298ZM748.6 298H752.26L760.03 277.63H756.31L750.34 293.59L744.55 277.63H740.83L748.6 298ZM766.935 294.94V288.67H776.175V285.61H766.935V280.69H778.545V277.63H763.665V298H778.725V294.94H766.935ZM788.636 298H792.446L794.396 293.17H804.206L806.156 298H809.966L800.906 277.63H797.696L788.636 298ZM795.626 290.11L799.316 281.44L802.976 290.11H795.626ZM824.574 289.84C827.484 289.12 829.464 287.05 829.464 283.87C829.464 279.85 826.344 277.63 822.264 277.63H813.294V298H816.564V290.11H820.734L826.554 298H830.634L824.574 289.84ZM816.564 287.11V280.69H822.024C824.244 280.69 826.104 281.71 826.104 283.93C826.104 286.12 824.244 287.11 822.024 287.11H816.564ZM839.617 298H842.857V280.69H849.997V277.63H832.477V280.69H839.617V298Z" fill="white"/>
<path d="M980.6 167.45C985.19 167.45 987.29 165.89 987.77 165.62V162.11C986.03 163.58 983.27 164.36 980.6 164.36C975.65 164.36 972.74 161.09 972.74 156.8C972.74 152.54 975.65 149.21 980.6 149.21C984.17 149.21 987.02 151.1 987.2 151.4V147.95C986.15 147.23 983.96 146.15 980.6 146.15C973.91 146.06 969.26 150.98 969.35 156.8C969.26 162.62 973.91 167.54 980.6 167.45ZM989.753 167H993.563L996.653 159.56L1000.43 150.68L1004.18 159.56L1007.27 167H1011.08L1002.14 146.63H998.693L989.753 167ZM1016.61 167.45C1019.61 167.45 1020.78 166.22 1022.4 162.23L1028.7 146.63H1025.1C1025.1 146.63 1022.55 153.38 1020.48 158.51L1014.51 146.63H1010.82L1019.1 162.23C1018.71 163.19 1018.26 164.36 1016.28 164.36C1014.66 164.36 1013.28 163.22 1013.28 163.22V166.31C1013.28 166.31 1014.78 167.45 1016.61 167.45ZM1044.32 167H1047.59V146.63H1044.32V158.18C1042.88 158.33 1040.84 158.51 1038.74 158.51C1036.1 158.51 1033.91 157.76 1033.91 154.13V146.63H1030.64V154.13C1030.64 159.56 1034.15 161.63 1038.74 161.63C1040.93 161.63 1043.09 161.39 1044.32 161.21V167ZM1050.92 167H1054.73L1056.68 162.17H1066.49L1068.44 167H1072.25L1063.19 146.63H1059.98L1050.92 167ZM1057.91 159.11L1061.6 150.44L1065.26 159.11H1057.91ZM1084.22 144.56C1087.73 144.56 1089.08 141.74 1089.08 139.43H1086.05C1086.05 140.3 1085.57 141.92 1084.22 141.92C1082.87 141.92 1082.42 140.3 1082.42 139.43H1079.39C1079.39 141.74 1080.71 144.56 1084.22 144.56ZM1075.58 167H1079.09L1089.65 151.28V167H1092.89V146.63H1089.35L1078.82 162.08V146.63H1075.58V167ZM1112.15 146.63V154.61H1101.56V146.63H1098.29V167H1101.56V157.67H1112.15V167H1115.42V146.63H1112.15ZM1130.15 167.45C1136.36 167.54 1140.95 162.62 1140.86 156.8C1140.95 150.98 1136.36 146.06 1130.15 146.15C1123.94 146.06 1119.38 150.98 1119.47 156.8C1119.38 162.62 1123.94 167.54 1130.15 167.45ZM1130.15 164.36C1125.71 164.36 1122.83 161.09 1122.83 156.8C1122.83 152.54 1125.71 149.21 1130.15 149.21C1134.65 149.21 1137.47 152.54 1137.47 156.8C1137.47 161.09 1134.65 164.36 1130.15 164.36ZM1154.8 167.45C1159.39 167.45 1161.49 165.89 1161.97 165.62V162.11C1160.23 163.58 1157.47 164.36 1154.8 164.36C1149.85 164.36 1146.94 161.09 1146.94 156.8C1146.94 152.54 1149.85 149.21 1154.8 149.21C1158.37 149.21 1161.22 151.1 1161.4 151.4V147.95C1160.35 147.23 1158.16 146.15 1154.8 146.15C1148.11 146.06 1143.46 150.98 1143.55 156.8C1143.46 162.62 1148.11 167.54 1154.8 167.45ZM1171.08 167H1174.32V149.69H1181.46V146.63H1163.94V149.69H1171.08V167ZM1185.36 167H1194.24C1198.26 167 1201.44 165.11 1201.44 160.82C1201.44 156.53 1198.5 154.76 1194.24 154.76H1188.63V146.63H1185.36V167ZM1188.57 163.94V157.67H1194C1195.68 157.67 1197.99 158.03 1197.99 160.76C1197.99 163.49 1195.68 163.94 1194 163.94H1188.57Z" fill="white"/>
<path d="M243.63 167H247.44L249.39 162.17H259.2L261.15 167H264.96L255.9 146.63H252.69L243.63 167ZM250.62 159.11L254.31 150.44L257.97 159.11H250.62ZM265.925 167H269.735L272.825 159.56L276.605 150.68L280.355 159.56L283.445 167H287.255L278.315 146.63H274.865L265.925 167ZM290.583 167H293.823V149.69H305.703V146.63H290.583V167ZM317.344 167.45C323.554 167.54 328.144 162.62 328.054 156.8C328.144 150.98 323.554 146.06 317.344 146.15C311.134 146.06 306.574 150.98 306.664 156.8C306.574 162.62 311.134 167.54 317.344 167.45ZM317.344 164.36C312.904 164.36 310.024 161.09 310.024 156.8C310.024 152.54 312.904 149.21 317.344 149.21C321.844 149.21 324.664 152.54 324.664 156.8C324.664 161.09 321.844 164.36 317.344 164.36ZM341.666 146.63H332.096V167H335.366V160.01H341.576C345.716 160.01 348.866 157.34 348.866 153.32C348.866 149.3 345.746 146.63 341.666 146.63ZM341.426 157.01H335.366V149.69H341.426C343.646 149.69 345.506 151.16 345.506 153.38C345.506 155.57 343.646 157.01 341.426 157.01ZM353.044 167H356.554L367.114 151.28V167H370.354V146.63H366.814L356.284 162.08V146.63H353.044V167ZM381.389 167H384.629V149.69H391.769V146.63H374.249V149.69H381.389V167ZM395.671 167H398.911V151.55L403.891 159.11H406.861L411.841 151.55V167H415.081V146.63H411.271L405.361 155.72V155.69L399.481 146.63H395.671V167Z" fill="white"/>
<path d="M626.7 607H629.94V589.69H641.82V586.63H626.7V607ZM648.896 603.94V597.67H658.136V594.61H648.896V589.69H660.506V586.63H645.626V607H660.686V603.94H648.896ZM673.296 607.45C679.506 607.54 684.096 602.62 684.006 596.8C684.096 590.98 679.506 586.06 673.296 586.15C667.086 586.06 662.526 590.98 662.616 596.8C662.526 602.62 667.086 607.54 673.296 607.45ZM673.296 604.36C668.856 604.36 665.976 601.09 665.976 596.8C665.976 592.54 668.856 589.21 673.296 589.21C677.796 589.21 680.616 592.54 680.616 596.8C680.616 601.09 677.796 604.36 673.296 604.36ZM688.048 607H691.288V591.55L696.268 599.11H699.238L704.218 591.55V607H707.458V586.63H703.648L697.738 595.72V595.69L691.858 586.63H688.048V607ZM716.132 603.94V597.67H725.372V594.61H716.132V589.69H727.742V586.63H712.862V607H727.922V603.94H716.132ZM737.75 607H740.99V589.69H748.13V586.63H730.61V589.69H737.75V607ZM761.602 586.63H752.032V607H755.302V600.01H761.512C765.652 600.01 768.802 597.34 768.802 593.32C768.802 589.3 765.682 586.63 761.602 586.63ZM761.362 597.01H755.302V589.69H761.362C763.582 589.69 765.442 591.16 765.442 593.38C765.442 595.57 763.582 597.01 761.362 597.01ZM772.979 607H776.489L787.049 591.28V607H790.289V586.63H786.749L776.219 602.08V586.63H772.979V607ZM794.184 607H798.264L802.374 600.79H808.344V607H811.584V586.63H802.644C797.724 586.63 794.934 589.12 794.934 593.74C794.934 597.43 797.184 599.17 799.224 599.68L794.184 607ZM803.304 597.79C800.064 597.79 798.294 596.62 798.294 593.77C798.294 590.95 799.704 589.69 802.944 589.69H808.374V597.79H803.304Z" fill="white"/>
</g>
<defs>
<clipPath id="clip0_1056_75">
<rect width="1440" height="666" fill="white"/>
</clipPath>
</defs>
</svg>
